<svg width="32" height="32" viewBox="0 0 32 32" fill="none" xmlns="http://www.w3.org/2000/svg">
  <rect width="32" height="32" fill="white"/>
  <!-- F -->
  <path d="M7 3H14V6H10V9H14V12H10V16H7V3Z" fill="#02001E"/>
  <!-- N -->
  <path d="M18 3H21V11L24 3H27V16H24V8L21 16H18V3Z" fill="#02001E"/>
  <!-- T -->
  <path d="M7 19H14V22H11V29H10V22H7V19Z" fill="#02001E"/>
  <!-- X -->
  <path d="M18 19L20.5 23.5L23 19H26L22.5 25L26 30H23L20.5 26L18 30H15L18.5 25L15 19H18Z" fill="#02001E"/>
  <!-- Accent mark -->
  <path d="M24 13L27 16L25 18L22 15Z" fill="#707070"/>
</svg>