<svg width="32" height="32" viewBox="0 0 32 32" fill="none" xmlns="http://www.w3.org/2000/svg">
  <rect width="32" height="32" fill="white"/>
  <!-- FN on top -->
  <g transform="translate(3, 4)">
    <!-- F -->
    <path d="M0 0H8V3H3V5H8V8H3V12H0V0Z" fill="#02001E"/>
    <!-- N -->
    <path d="M11 0H14L18 8V0H21V12H18L14 4V12H11V0Z" fill="#02001E"/>
  </g>
  <!-- TX on bottom -->
  <g transform="translate(3, 18)">
    <!-- T -->
    <path d="M3 0H11V3H9V12H6V3H3V0Z" fill="#02001E"/>
    <!-- X -->
    <path d="M14 0L16.5 4L19 0H22L18.5 6L22 12H19L16.5 8L14 12H11L14.5 6L11 0H14Z" fill="#02001E"/>
  </g>
  <!-- Small accent -->
  <path d="M24 14L26 16L25 17L23 15Z" fill="#707070"/>
</svg>