<svg width="32" height="32" viewBox="0 0 32 32" fill="none" xmlns="http://www.w3.org/2000/svg">
  <rect width="32" height="32" fill="white"/>
  <g transform="scale(0.18) translate(-85, -15)">
    <path d="M229.155 69.9055L239.904 82.3237H251.014L234.982 62.2845L229.155 69.9055Z" fill="#707070"/>
    <path d="M100 43.7169H125.587V53.2861H109.744V62.6444H125.587V72.0742H109.744V95.2769H100V43.7169Z" fill="#02001E"/>
    <path d="M190.354 104L223.873 70.2093L218.132 63.1959L190.354 104Z" fill="#707070"/>
    <path d="M130.045 43.7169H139.46L161.523 77.647V43.7169H171.339V95.2769H161.898L139.864 61.454V95.2769H130.045V43.7169Z" fill="#02001E"/>
    <path d="M227.698 57.3653L216.953 43.7032H195.509V43.7175H173.725V53.3904H182.873V95.2776H192.828V53.3904H202.222V53.3797L213.671 53.3689C217.868 58.3162 224.174 65.8586 226.611 69.0257C247.369 35.6854 279.351 24 279.351 24C250.204 31.7426 227.698 57.3653 227.698 57.3653Z" fill="#02001E"/>
  </g>
</svg>